<svg xmlns="http://www.w3.org/2000/svg" viewBox="0 0 64 64" role="img" aria-labelledby="title desc">
  <title id="title">Precip</title>
  <desc id="desc">A refined weather mark combining a raindrop and atmospheric contour lines.</desc>
  <defs>
    <linearGradient id="bg" x1="10" y1="8" x2="54" y2="56" gradientUnits="userSpaceOnUse">
      <stop offset="0" stop-color="#232b34" />
      <stop offset="1" stop-color="#161b21" />
    </linearGradient>
    <linearGradient id="drop" x1="24" y1="14" x2="39" y2="49" gradientUnits="userSpaceOnUse">
      <stop offset="0" stop-color="#8bb8e2" />
      <stop offset="0.62" stop-color="#79c0bd" />
      <stop offset="1" stop-color="#d6a06d" />
    </linearGradient>
  </defs>
  <rect width="64" height="64" rx="16" fill="url(#bg)" />
  <path d="M17 25.5c3.3-2.4 6.6-3.6 10-3.6 3.2 0 6 .7 8.6 2.2 2.8 1.6 5.8 2.4 9 2.4 1.6 0 3.2-.2 4.8-.7" fill="none" stroke="#6c7683" stroke-width="2.2" stroke-linecap="round" opacity=".92" />
  <path d="M15.6 34.8c3.8-2.2 7.8-3.3 12.1-3.3 3 0 5.9.6 8.7 1.8 3 1.3 5.9 2 8.8 2 1.3 0 2.7-.1 4-.4" fill="none" stroke="#4d5967" stroke-width="2.2" stroke-linecap="round" opacity=".9" />
  <path d="M32 12.5c5.8 7 12 14.6 12 23.1 0 7.4-5 12.9-12 12.9s-12-5.5-12-12.9c0-8.5 6.2-16.1 12-23.1Z" fill="url(#drop)" />
  <path d="M27.2 36.4c1.6 2.2 3.7 3.3 6.3 3.3 1.2 0 2.5-.2 3.8-.7" fill="none" stroke="#eef2f6" stroke-width="2.6" stroke-linecap="round" opacity=".95" />
  <circle cx="46.5" cy="19.2" r="2.4" fill="#d6a06d" opacity=".95" />
</svg>
